<?xml version="1.0" standalone="no"?>
<!DOCTYPE svg PUBLIC "-//W3C//DTD SVG 20010904//EN"
 "http://www.w3.org/TR/2001/REC-SVG-20010904/DTD/svg10.dtd">
<svg version="1.0" xmlns="http://www.w3.org/2000/svg"
 width="1080.000000pt" height="1080.000000pt" viewBox="0 0 1080.000000 1080.000000"
 preserveAspectRatio="xMidYMid meet">

<g transform="translate(0.000000,1080.000000) scale(0.100000,-0.100000)"
fill="#000000" stroke="none">
<path d="M0 5400 l0 -5400 5400 0 5400 0 0 5400 0 5400 -5400 0 -5400 0 0
-5400z m5536 4700 c6 -6 55 -28 110 -48 117 -45 357 -181 464 -262 92 -71 155
-135 146 -149 -5 -7 -1 -8 10 -4 14 5 16 3 11 -11 -4 -10 -3 -15 3 -11 13 8
61 -45 53 -58 -3 -6 -1 -7 5 -3 6 4 19 -6 29 -21 10 -15 22 -31 28 -35 6 -5 5
-12 -5 -19 -13 -9 -12 -10 2 -5 20 6 63 -62 130 -203 92 -198 90 -191 100
-376 6 -100 15 -181 23 -197 9 -20 10 -30 1 -39 -9 -10 -8 -11 4 -2 12 9 23 4
53 -23 21 -19 35 -39 32 -44 -3 -5 0 -12 6 -16 8 -4 9 -3 5 4 -12 19 12 14 26
-6 7 -9 41 -41 76 -71 36 -31 61 -59 58 -67 -3 -8 0 -11 8 -8 7 3 41 -26 76
-63 118 -127 464 -487 604 -630 77 -79 137 -143 134 -143 -3 0 25 -30 63 -66
38 -37 66 -71 62 -77 -3 -6 -1 -7 4 -4 11 7 257 -242 248 -251 -2 -3 7 -14 21
-24 21 -17 23 -23 12 -37 -12 -14 -11 -15 5 -2 16 12 22 9 18 -12 -1 -5 2 -6
7 -3 5 3 40 -31 78 -76 38 -45 80 -91 92 -102 13 -12 46 -50 72 -86 73 -98 85
-112 125 -155 33 -34 132 -167 160 -213 6 -10 13 -19 16 -22 6 -6 140 -192
188 -264 l33 -48 -5 -187 c-4 -145 -11 -214 -31 -315 -31 -155 -65 -279 -78
-287 -5 -3 -9 -8 -8 -10 5 -11 -14 -59 -23 -59 -6 0 -8 -3 -4 -6 11 -11 -44
-88 -116 -161 -55 -56 -74 -70 -84 -61 -10 8 -12 7 -8 -4 7 -18 -60 -72 -77
-62 -7 4 -8 3 -4 -4 4 -7 3 -12 -2 -12 -13 0 -43 35 -37 43 3 4 2 5 -1 2 -17
-12 -131 106 -191 197 -80 120 -149 178 -211 178 -12 0 -9 -5 11 -18 15 -10
24 -22 20 -27 -5 -4 -3 -5 3 -2 11 7 60 -41 85 -83 19 -30 55 -125 64 -163 9
-43 -4 -93 -28 -106 -20 -10 -78 -49 -102 -69 -32 -25 -88 -51 -98 -46 -7 4
-9 4 -5 -1 22 -24 -200 -84 -292 -78 -78 4 -151 23 -143 36 3 6 1 7 -5 3 -6
-4 -26 1 -44 10 -40 20 -143 102 -179 141 -34 37 -89 130 -82 137 4 3 2 6 -4
6 -31 0 -98 275 -110 453 -3 53 -12 105 -19 115 -10 14 -37 18 -176 24 -100 4
-203 14 -268 28 -220 44 -350 85 -350 109 0 12 -2 13 -9 3 -14 -22 -176 68
-400 221 -14 9 -25 22 -23 28 1 6 -2 8 -8 4 -6 -4 -30 7 -53 25 -23 17 -78 57
-122 90 -45 32 -89 69 -98 82 -90 121 -116 162 -110 171 3 5 2 7 -4 4 -5 -3
-31 32 -56 78 l-47 83 -67 -45 c-38 -25 -84 -58 -104 -74 -20 -16 -39 -26 -43
-22 -3 3 -6 1 -6 -5 0 -5 -17 -21 -37 -33 -21 -13 -40 -25 -43 -29 -11 -11
-119 -90 -125 -90 -3 0 -3 6 1 13 4 7 3 9 -2 4 -5 -5 -9 -12 -9 -16 0 -10 -13
-21 -117 -110 -49 -40 -88 -78 -88 -83 0 -6 -7 -7 -16 -4 -8 3 -12 2 -9 -3 5
-9 -39 -65 -111 -140 -19 -20 -60 -73 -90 -119 -32 -48 -60 -79 -66 -76 -6 4
-8 2 -5 -4 4 -5 -20 -56 -53 -112 -33 -56 -60 -104 -60 -107 0 -3 -10 -22 -22
-42 -13 -20 -23 -39 -23 -42 0 -16 -100 -257 -105 -254 -3 2 -6 -4 -7 -13 -1
-9 -13 -57 -28 -107 -15 -53 -31 -144 -38 -220 -12 -123 -14 -130 -35 -133
-12 -2 -22 -2 -22 0 0 2 -7 53 -15 113 -8 61 -17 171 -21 245 -5 122 -3 147
20 259 55 261 187 644 216 626 5 -3 7 1 4 9 -7 18 14 59 26 51 6 -3 7 0 4 8
-3 8 2 20 11 27 8 7 15 16 15 21 0 15 111 184 120 182 5 -2 7 3 4 11 -3 7 22
49 54 92 81 108 326 380 340 377 7 -2 11 2 9 8 -2 13 184 159 196 152 4 -2 7
1 7 7 0 6 5 8 12 4 6 -4 8 -3 5 3 -6 10 169 133 188 133 6 0 3 -5 -5 -11 -13
-9 -13 -10 0 -6 8 2 15 10 15 18 0 22 369 179 421 179 7 0 13 -39 17 -97 16
-243 65 -498 126 -658 17 -43 28 -82 24 -88 -3 -6 -2 -7 4 -4 6 4 15 -6 22
-21 21 -47 105 -182 113 -182 4 0 8 -5 8 -11 0 -7 8 -18 18 -26 9 -8 11 -11 3
-7 -9 5 -12 3 -7 -5 4 -6 12 -8 18 -5 6 4 13 3 17 -2 10 -14 85 -61 127 -80
22 -9 96 -35 166 -59 70 -23 126 -44 124 -46 -12 -12 259 -17 564 -9 130 3
151 1 200 -18 70 -27 143 -80 136 -98 -3 -8 0 -13 7 -11 18 3 76 -118 103
-218 14 -49 36 -126 49 -169 13 -44 21 -84 18 -89 -3 -6 -1 -7 4 -4 6 4 16 -7
23 -24 8 -17 24 -47 37 -66 13 -19 21 -39 18 -44 -3 -5 2 -6 11 -2 12 4 15 3
10 -5 -5 -8 -1 -10 10 -5 11 4 15 2 11 -4 -5 -7 8 -7 41 0 26 5 54 10 62 10
10 1 15 12 16 33 0 36 42 144 55 144 5 0 9 6 9 14 0 16 58 79 89 95 12 7 29
10 37 7 9 -3 12 -1 9 4 -4 6 13 10 43 10 46 0 99 -12 324 -74 l86 -24 11 26
c5 15 13 38 16 52 4 14 21 57 38 95 16 39 38 108 48 154 11 47 33 129 51 183
29 88 31 101 19 133 -7 19 -9 40 -5 46 4 7 3 9 -3 6 -13 -8 -66 59 -58 73 4 6
2 9 -3 8 -6 -2 -47 55 -92 126 -45 71 -101 156 -126 188 -24 33 -42 63 -39 69
4 5 2 8 -4 7 -15 -4 -152 174 -146 190 2 7 1 11 -4 8 -15 -10 -115 109 -105
125 3 5 0 8 -8 7 -7 -2 -12 5 -12 14 1 10 -2 16 -6 15 -14 -4 -211 233 -204
245 4 6 3 8 -4 4 -5 -3 -41 29 -79 71 -37 43 -106 117 -153 165 -47 48 -85 93
-85 100 -1 7 -6 12 -13 11 -9 -2 -160 130 -207 181 -5 6 -26 24 -45 40 -95 78
-289 270 -283 280 3 6 3 8 -2 4 -4 -4 -32 13 -61 39 -41 34 -52 49 -44 58 8 9
8 15 0 20 -6 4 -9 1 -8 -7 6 -26 -20 -12 -85 46 -37 32 -64 63 -60 69 4 6 1 7
-7 2 -7 -4 -15 -3 -19 2 -3 5 -31 29 -62 54 -123 97 -215 179 -237 208 -19 26
-26 56 -37 157 -13 119 -17 131 -67 232 -29 59 -52 113 -51 119 0 7 -3 11 -7
8 -4 -3 -20 14 -36 38 -15 23 -45 64 -66 90 -21 27 -36 53 -33 58 4 5 -1 6 -9
3 -15 -6 -21 6 -17 29 1 5 -3 6 -9 2 -6 -4 -18 -1 -26 6 -12 10 -12 14 -2 21
10 7 9 8 -2 6 -9 -2 -34 12 -55 31 -22 18 -32 31 -22 27 11 -3 16 -2 12 5 -4
6 -13 8 -20 5 -7 -2 -21 2 -32 9 -23 18 -51 19 -50 3 2 -21 -12 -238 -29 -433
-11 -130 -14 -229 -9 -357 6 -157 5 -181 -9 -203 -9 -14 -21 -23 -26 -20 -6 4
-10 2 -10 -4 0 -6 -12 -13 -27 -17 -16 -3 -57 -19 -93 -34 -36 -16 -96 -41
-135 -56 -38 -16 -90 -41 -115 -56 -26 -17 -52 -26 -65 -23 -11 3 -14 2 -6 -1
9 -4 -6 -18 -45 -40 -32 -18 -62 -30 -67 -27 -6 3 -7 1 -4 -4 4 -6 -20 -29
-52 -52 -67 -46 -99 -62 -86 -41 5 9 4 11 -4 6 -6 -4 -9 -11 -6 -16 3 -4 -25
-30 -62 -56 -38 -26 -87 -63 -111 -82 -36 -30 -44 -33 -60 -21 -14 11 -15 11
-5 0 10 -11 -2 -27 -59 -80 -39 -36 -75 -65 -80 -63 -4 1 -7 -2 -6 -7 2 -4
-37 -52 -87 -106 -101 -109 -116 -127 -207 -240 -36 -44 -70 -79 -77 -77 -7 1
-10 -2 -6 -8 3 -5 -6 -25 -22 -44 -22 -29 -30 -33 -43 -23 -13 11 -13 10 -1
-6 12 -16 11 -21 -11 -45 -13 -15 -38 -46 -55 -69 -16 -24 -34 -39 -38 -35 -5
4 -5 1 -1 -6 4 -6 -1 -24 -12 -40 -10 -15 -56 -92 -102 -172 -45 -80 -85 -147
-89 -150 -3 -3 -7 -12 -9 -20 -5 -26 -31 -77 -45 -88 -26 -22 -40 3 -33 55 8
64 56 214 66 208 5 -3 6 5 2 17 -4 16 -2 19 8 13 10 -6 12 -4 7 8 -11 30 136
383 154 371 5 -3 6 3 2 12 -5 13 -3 15 7 9 8 -5 11 -4 7 2 -8 12 94 207 159
305 35 51 51 68 63 63 12 -5 13 -3 4 5 -14 15 28 75 204 286 158 191 295 326
423 421 93 68 279 186 390 246 30 17 58 34 61 39 3 5 4 118 1 251 -7 377 18
690 78 1002 35 185 45 206 76 175z m-1001 -1500 c94 -11 195 -20 226 -20 31 0
78 -3 104 -6 l47 -7 -72 -33 c-40 -19 -77 -31 -83 -27 -5 3 -7 1 -4 -4 7 -11
-139 -103 -231 -146 -26 -13 -81 -41 -122 -62 -41 -21 -77 -39 -80 -40 -3 0
-72 -45 -155 -99 -82 -55 -155 -99 -162 -99 -7 0 -10 -4 -8 -8 3 -4 -10 -18
-28 -31 -56 -43 -137 -98 -142 -98 -4 0 -44 -29 -91 -65 -46 -36 -89 -63 -94
-60 -5 3 -12 0 -16 -6 -5 -8 -2 -10 7 -5 8 4 1 -3 -15 -15 -15 -12 -69 -57
-119 -100 -50 -43 -95 -75 -100 -72 -6 3 -7 1 -3 -5 4 -7 -31 -50 -82 -104
-49 -51 -140 -147 -202 -213 -62 -66 -116 -120 -121 -120 -4 0 -14 -6 -21 -14
-10 -10 -10 -12 0 -7 20 12 13 -9 -11 -32 -13 -12 -27 -19 -32 -15 -4 5 -5 3
-1 -4 8 -14 -122 -210 -136 -205 -5 1 -7 -2 -4 -7 4 -6 -9 -34 -27 -63 -18
-29 -53 -88 -77 -130 -24 -42 -48 -74 -53 -71 -6 3 -7 1 -4 -5 10 -15 -3 -43
-16 -35 -6 3 -7 1 -3 -5 4 -6 -9 -44 -28 -84 -61 -131 -77 -171 -128 -313
-103 -284 -145 -463 -173 -729 -15 -138 -20 -488 -9 -558 l7 -38 66 -1 c79 0
256 -31 245 -42 -5 -5 -1 -5 8 -2 9 4 59 -2 110 -13 51 -11 120 -26 153 -32
116 -23 459 -156 448 -173 -4 -6 -1 -7 6 -3 13 9 78 -16 181 -68 127 -65 190
-101 191 -111 2 -18 22 -36 35 -31 13 5 299 -167 406 -245 32 -23 55 -46 51
-52 -3 -5 -1 -7 5 -3 19 11 239 -203 224 -219 -4 -5 -1 -5 6 -1 16 10 45 -13
38 -30 -3 -8 -2 -13 2 -11 14 4 83 -56 78 -69 -3 -8 0 -11 10 -7 13 5 19 -8
15 -30 -1 -5 3 -6 8 -2 14 8 122 -95 114 -109 -3 -6 -3 -8 1 -4 13 11 180
-158 171 -173 -5 -7 -4 -10 2 -6 6 4 32 -16 58 -44 41 -44 45 -52 33 -67 -11
-15 -11 -15 2 -5 13 10 31 -8 110 -109 52 -66 103 -130 113 -142 51 -58 247
-355 247 -373 0 -3 8 -17 19 -31 41 -59 110 -195 104 -206 -3 -6 -2 -7 2 -3 5
4 16 -7 25 -25 9 -18 56 -109 104 -201 76 -145 86 -170 75 -185 -11 -14 -11
-15 1 -5 11 10 17 7 32 -18 10 -17 16 -34 13 -40 -4 -5 -2 -9 3 -9 11 0 37
-57 37 -79 0 -22 24 -25 31 -4 3 10 14 39 25 65 48 118 92 380 110 648 11 172
11 180 -20 415 -18 141 -44 287 -61 355 -17 63 -32 122 -34 130 -2 8 -6 22 -9
30 -3 8 -17 51 -31 95 -14 44 -43 134 -65 200 -49 152 -66 233 -91 420 -12 83
-29 197 -40 255 -16 84 -20 159 -22 375 -3 264 -2 272 23 370 31 118 87 257
100 249 5 -3 6 1 3 9 -3 8 7 29 23 48 38 47 46 51 60 32 10 -13 10 -20 0 -32
-9 -12 -9 -13 1 -7 17 10 15 2 -7 -42 -10 -20 -30 -71 -42 -112 -21 -65 -24
-94 -23 -225 0 -125 5 -169 27 -267 15 -65 27 -134 27 -154 0 -20 12 -79 26
-130 14 -52 27 -102 29 -112 39 -172 134 -468 192 -592 24 -52 41 -100 38
-108 -2 -7 -1 -11 4 -7 8 4 97 -165 105 -200 2 -5 6 -17 9 -25 28 -68 57 -172
51 -181 -4 -7 -3 -9 3 -6 13 8 46 -79 68 -173 71 -318 95 -725 56 -980 -11
-69 -25 -170 -31 -224 -10 -96 -35 -210 -65 -306 -8 -25 -26 -83 -40 -130 -45
-145 -67 -200 -78 -193 -5 3 -7 1 -3 -5 8 -13 -13 -62 -27 -62 -6 0 -7 -3 -4
-7 8 -7 -46 -107 -77 -142 -12 -13 -14 -20 -6 -15 11 6 10 1 -4 -21 -10 -15
-27 -43 -38 -62 -11 -18 -25 -30 -31 -26 -5 3 -7 1 -3 -5 9 -14 -14 -63 -27
-55 -6 3 -7 1 -4 -4 8 -13 -91 -179 -105 -175 -5 1 -7 -2 -3 -7 6 -11 -31 -91
-43 -91 -10 0 -98 220 -95 238 0 7 -2 11 -5 7 -9 -9 -54 104 -46 117 4 6 3 8
-3 5 -10 -6 -115 217 -112 237 0 5 -3 12 -8 15 -5 3 -24 41 -41 83 -18 42 -46
106 -62 142 -17 37 -28 71 -24 78 4 6 3 8 -3 5 -5 -3 -25 26 -44 66 -19 40
-70 139 -112 220 -43 81 -75 153 -71 159 4 6 3 8 -3 5 -13 -8 -46 61 -37 76 4
7 3 9 -1 4 -10 -8 -67 91 -60 104 3 4 0 11 -6 15 -8 4 -9 3 -5 -4 4 -7 5 -12
3 -12 -8 0 -90 143 -90 157 0 6 -3 10 -7 8 -11 -7 -42 54 -34 67 4 6 3 8 -4 4
-6 -3 -20 11 -33 31 -50 83 -156 241 -197 295 -25 33 -40 63 -36 69 4 7 3 9
-4 5 -11 -7 -189 240 -184 257 1 4 -1 6 -6 3 -5 -3 -54 50 -109 117 -56 67
-146 167 -202 222 -72 72 -97 102 -90 111 7 8 6 15 -2 20 -7 4 -9 3 -5 -4 17
-28 -15 -17 -55 19 -24 22 -60 52 -79 67 -19 15 -72 57 -117 93 -124 102 -425
296 -640 415 -28 15 -49 32 -46 38 3 5 2 6 -4 3 -13 -8 -125 38 -115 48 4 5 2
5 -5 2 -16 -10 -44 3 -36 16 3 6 1 7 -5 3 -6 -4 -30 3 -53 15 -187 95 -539
182 -843 208 -70 6 -112 14 -118 23 -17 24 6 432 38 683 29 219 92 473 168
669 13 34 54 142 91 241 69 184 172 398 187 389 4 -3 5 2 2 10 -4 10 -1 16 7
16 7 0 10 3 6 6 -3 3 14 40 39 81 24 41 44 76 44 78 0 11 160 253 249 377 58
81 116 162 129 180 13 18 31 42 41 53 9 12 20 27 23 35 13 32 140 170 150 164
7 -5 8 -2 3 5 -4 8 4 25 23 44 33 34 161 181 252 288 81 96 253 268 262 263 4
-3 5 1 2 9 -3 8 -16 14 -29 13 -13 0 -21 -4 -19 -7 2 -4 -36 -14 -84 -23 -48
-10 -139 -36 -202 -58 -63 -22 -119 -41 -125 -42 -5 -2 -17 -6 -25 -9 -8 -3
-53 -19 -100 -36 -47 -16 -116 -45 -155 -65 -38 -20 -76 -34 -83 -31 -7 2 -11
1 -8 -4 6 -9 -122 -76 -141 -74 -7 0 -11 -3 -8 -7 6 -10 -24 -22 -36 -15 -5 4
-7 0 -5 -7 3 -8 -30 -35 -81 -68 -47 -30 -91 -60 -97 -67 -70 -65 -170 -142
-178 -136 -6 3 -8 1 -4 -5 6 -10 -148 -157 -164 -157 -5 0 -12 -4 -17 -9 -5
-5 -3 -6 5 -2 28 17 6 -14 -67 -93 -59 -63 -83 -82 -96 -77 -14 5 -17 16 -13
65 3 46 16 82 67 181 72 144 120 222 132 214 5 -3 6 1 3 9 -9 23 116 195 138
189 5 -1 7 2 3 7 -17 29 297 323 326 305 7 -4 9 -3 6 3 -4 6 24 33 62 61 86
63 108 75 123 66 7 -4 8 -3 4 4 -9 15 28 33 51 26 12 -4 14 -3 5 3 -15 11 122
88 138 78 6 -4 9 -1 8 6 -5 22 222 109 437 168 125 34 359 75 386 68 11 -3 17
-1 13 4 -3 5 105 9 263 9 203 0 310 -5 438 -20z m2156 -769 c137 -90 354 -306
400 -398 35 -70 34 -99 -5 -138 -59 -59 -153 -49 -249 24 -50 38 -61 52 -59
72 1 16 -1 20 -7 11 -9 -15 -33 13 -66 77 -43 85 -122 401 -100 401 7 0 45
-22 86 -49z m-2976 -3451 c3 -5 2 -10 -4 -10 -5 0 -13 5 -16 10 -3 6 -2 10 4
10 5 0 13 -4 16 -10z"/>
<path d="M6086 9772 c-2 -4 4 -8 14 -8 10 0 16 4 14 8 -3 4 -9 8 -14 8 -5 0
-11 -4 -14 -8z"/>
<path d="M6096 9253 c-6 -14 -5 -15 5 -6 7 7 10 15 7 18 -3 3 -9 -2 -12 -12z"/>
<path d="M6129 9253 c-13 -16 -12 -17 4 -4 9 7 17 15 17 17 0 8 -8 3 -21 -13z"/>
<path d="M6360 8636 c0 -2 8 -10 18 -17 15 -13 16 -12 3 4 -13 16 -21 21 -21
13z"/>
<path d="M5155 8510 c-3 -6 1 -7 9 -4 18 7 21 14 7 14 -6 0 -13 -4 -16 -10z"/>
<path d="M5205 8210 c-3 -6 1 -7 9 -4 18 7 21 14 7 14 -6 0 -13 -4 -16 -10z"/>
<path d="M7199 8093 c-13 -16 -12 -17 4 -4 9 7 17 15 17 17 0 8 -8 3 -21 -13z"/>
<path d="M4973 8063 c4 -3 1 -13 -6 -22 -11 -14 -10 -14 5 -2 16 12 16 31 1
31 -4 0 -3 -3 0 -7z"/>
<path d="M7081 7974 c0 -11 3 -14 6 -6 3 7 2 16 -1 19 -3 4 -6 -2 -5 -13z"/>
<path d="M7316 7748 c3 -5 10 -6 15 -3 13 9 11 12 -6 12 -8 0 -12 -4 -9 -9z"/>
<path d="M4296 7636 c5 -12 4 -17 -3 -13 -5 3 -10 -1 -10 -9 0 -13 2 -13 16 0
12 13 13 18 2 28 -10 11 -11 9 -5 -6z"/>
<path d="M7660 7619 c0 -5 5 -7 10 -4 6 3 10 8 10 11 0 2 -4 4 -10 4 -5 0 -10
-5 -10 -11z"/>
<path d="M4486 7587 c3 -10 9 -15 12 -12 3 3 0 11 -7 18 -10 9 -11 8 -5 -6z"/>
<path d="M7696 7572 c-3 -5 1 -9 9 -9 8 0 12 4 9 9 -3 4 -7 8 -9 8 -2 0 -6 -4
-9 -8z"/>
<path d="M4326 7422 c-3 -5 1 -9 9 -9 8 0 12 4 9 9 -3 4 -7 8 -9 8 -2 0 -6 -4
-9 -8z"/>
<path d="M8040 7224 c0 -2 9 -8 20 -14 15 -8 18 -8 14 3 -4 11 -34 21 -34 11z"/>
<path d="M4010 6981 c0 -6 4 -13 10 -16 6 -3 7 1 4 9 -7 18 -14 21 -14 7z"/>
<path d="M4933 6815 c0 -8 4 -12 9 -9 5 3 6 10 3 15 -9 13 -12 11 -12 -6z"/>
<path d="M5501 6624 c0 -11 3 -14 6 -6 3 7 2 16 -1 19 -3 4 -6 -2 -5 -13z"/>
<path d="M5280 6626 c0 -2 8 -10 18 -17 15 -13 16 -12 3 4 -13 16 -21 21 -21
13z"/>
<path d="M5174 6534 c-18 -14 -18 -15 4 -4 12 6 22 13 22 15 0 8 -5 6 -26 -11z"/>
<path d="M4825 6300 c-3 -6 1 -7 9 -4 18 7 21 14 7 14 -6 0 -13 -4 -16 -10z"/>
<path d="M8585 6230 c-3 -5 0 -12 6 -16 8 -5 9 -3 4 6 -6 10 -4 12 8 7 9 -3
18 -3 21 1 3 4 -4 8 -14 9 -11 1 -22 -2 -25 -7z"/>
<path d="M3489 7943 c-13 -16 -12 -17 4 -4 9 7 17 15 17 17 0 8 -8 3 -21 -13z"/>
<path d="M3709 7908 c-5 -18 -6 -38 -1 -34 7 8 12 36 6 36 -2 0 -4 -1 -5 -2z"/>
<path d="M3739 7883 c-13 -16 -12 -17 4 -4 9 7 17 15 17 17 0 8 -8 3 -21 -13z"/>
<path d="M3100 7481 c0 -6 4 -13 10 -16 6 -3 7 1 4 9 -7 18 -14 21 -14 7z"/>
<path d="M3135 7351 c-3 -5 -2 -12 3 -15 5 -3 9 1 9 9 0 17 -3 19 -12 6z"/>
<path d="M2839 6983 c-13 -16 -12 -17 4 -4 9 7 17 15 17 17 0 8 -8 3 -21 -13z"/>
<path d="M2696 6888 c3 -5 10 -6 15 -3 13 9 11 12 -6 12 -8 0 -12 -4 -9 -9z"/>
<path d="M5770 5485 c0 -5 5 -17 10 -25 5 -8 10 -10 10 -5 0 6 -5 17 -10 25
-5 8 -10 11 -10 5z"/>
<path d="M4574 3648 c-12 -14 -13 -18 -3 -10 9 6 18 10 21 7 2 -3 5 2 5 10 0
19 0 19 -23 -7z"/>
<path d="M4655 3541 c-3 -5 -2 -12 3 -15 5 -3 9 1 9 9 0 17 -3 19 -12 6z"/>
<path d="M4167 3489 c7 -7 15 -10 18 -7 3 3 -2 9 -12 12 -14 6 -15 5 -6 -5z"/>
<path d="M4529 3103 c-12 -16 -12 -17 2 -6 9 7 20 9 24 5 5 -4 5 -1 1 6 -9 16
-11 15 -27 -5z"/>
<path d="M5210 2935 c0 -5 5 -17 10 -25 5 -8 10 -10 10 -5 0 6 -5 17 -10 25
-5 8 -10 11 -10 5z"/>
<path d="M5930 981 c0 -6 4 -13 10 -16 6 -3 7 1 4 9 -7 18 -14 21 -14 7z"/>
<path d="M5856 813 c-6 -14 -5 -15 5 -6 7 7 10 15 7 18 -3 3 -9 -2 -12 -12z"/>
<path d="M7055 7461 c-3 -5 -2 -12 3 -15 5 -3 9 1 9 9 0 17 -3 19 -12 6z"/>
</g>
</svg>
